<mxfile host="Electron" modified="2024-02-08T19:01:40.996Z" agent="Mozilla/5.0 (Macintosh; Intel Mac OS X 10_15_7) AppleWebKit/537.36 (KHTML, like Gecko) draw.io/23.0.2 Chrome/120.0.6099.109 Electron/28.1.0 Safari/537.36" etag="ZedmRPrZh0TSFmc8_I7q" version="23.0.2" type="device">
  <diagram name="Page-1" id="cWTKhKW8xR2mcrcdvLpz">
    <mxGraphModel dx="746" dy="515" grid="1" gridSize="10" guides="1" tooltips="1" connect="1" arrows="1" fold="1" page="1" pageScale="1" pageWidth="827" pageHeight="1169" math="0" shadow="0">
      <root>
        <mxCell id="0" />
        <mxCell id="1" parent="0" />
        <mxCell id="it17UY4j0vXRSrkzn4eO-22" value="" style="rounded=0;whiteSpace=wrap;html=1;fillColor=#f5f5f5;strokeColor=#666666;fontColor=#333333;" vertex="1" parent="1">
          <mxGeometry x="270" y="370" width="550" height="90" as="geometry" />
        </mxCell>
        <mxCell id="it17UY4j0vXRSrkzn4eO-1" value="" style="rounded=0;whiteSpace=wrap;html=1;fillColor=#f8cecc;strokeColor=#b85450;" vertex="1" parent="1">
          <mxGeometry x="270" y="490" width="550" height="90" as="geometry" />
        </mxCell>
        <mxCell id="it17UY4j0vXRSrkzn4eO-3" value="" style="rounded=0;whiteSpace=wrap;html=1;fillColor=#d5e8d4;strokeColor=#82b366;" vertex="1" parent="1">
          <mxGeometry x="270" y="740" width="550" height="100" as="geometry" />
        </mxCell>
        <mxCell id="it17UY4j0vXRSrkzn4eO-2" value="" style="rounded=0;whiteSpace=wrap;html=1;fillColor=#dae8fc;strokeColor=#6c8ebf;" vertex="1" parent="1">
          <mxGeometry x="270" y="620" width="550" height="90" as="geometry" />
        </mxCell>
        <mxCell id="I_P2_qD0Jl0lsfXRpeoM-11" value="deploy/backend" style="shape=process;whiteSpace=wrap;html=1;backgroundOutline=1;" parent="1" vertex="1">
          <mxGeometry x="660" y="650" width="120" height="30" as="geometry" />
        </mxCell>
        <mxCell id="m6qfPFcmYVWHdmUiW8hK-6" style="edgeStyle=orthogonalEdgeStyle;rounded=0;orthogonalLoop=1;jettySize=auto;html=1;entryX=0;entryY=0.5;entryDx=0;entryDy=0;fillColor=#d5e8d4;strokeColor=#82b366;" parent="1" source="I_P2_qD0Jl0lsfXRpeoM-14" target="I_P2_qD0Jl0lsfXRpeoM-11" edge="1">
          <mxGeometry relative="1" as="geometry" />
        </mxCell>
        <mxCell id="I_P2_qD0Jl0lsfXRpeoM-14" value="svc/backend-svc" style="shape=process;whiteSpace=wrap;html=1;backgroundOutline=1;" parent="1" vertex="1">
          <mxGeometry x="497" y="648.75" width="120" height="32.5" as="geometry" />
        </mxCell>
        <mxCell id="it17UY4j0vXRSrkzn4eO-20" style="edgeStyle=orthogonalEdgeStyle;rounded=0;orthogonalLoop=1;jettySize=auto;html=1;entryX=0;entryY=0.5;entryDx=0;entryDy=0;strokeColor=#FF0000;" edge="1" parent="1" source="I_P2_qD0Jl0lsfXRpeoM-20" target="it17UY4j0vXRSrkzn4eO-4">
          <mxGeometry relative="1" as="geometry" />
        </mxCell>
        <mxCell id="I_P2_qD0Jl0lsfXRpeoM-20" value="Host:broken.istiodemo.io&amp;nbsp;&lt;b&gt;localhost:80&lt;/b&gt;" style="text;html=1;strokeColor=none;fillColor=none;align=center;verticalAlign=middle;whiteSpace=wrap;rounded=0;" parent="1" vertex="1">
          <mxGeometry x="10" y="515" width="215" height="30" as="geometry" />
        </mxCell>
        <mxCell id="hGpC-fk8pfbG3-t0eklQ-1" value="pa/strict" style="shape=process;whiteSpace=wrap;html=1;backgroundOutline=1;" parent="1" vertex="1">
          <mxGeometry x="294" y="390" width="120" height="40" as="geometry" />
        </mxCell>
        <mxCell id="hGpC-fk8pfbG3-t0eklQ-3" value="&lt;i&gt;&lt;b&gt;&lt;font color=&quot;#ff0000&quot;&gt;strict: force mTLS &lt;br&gt;everywhere&lt;/font&gt;&lt;/b&gt;&lt;/i&gt;" style="text;html=1;strokeColor=none;fillColor=none;align=left;verticalAlign=middle;whiteSpace=wrap;rounded=0;" parent="1" vertex="1">
          <mxGeometry x="370" y="430" width="110" height="30" as="geometry" />
        </mxCell>
        <mxCell id="it17UY4j0vXRSrkzn4eO-21" style="edgeStyle=orthogonalEdgeStyle;rounded=0;orthogonalLoop=1;jettySize=auto;html=1;entryX=0;entryY=0.5;entryDx=0;entryDy=0;fillColor=#d5e8d4;strokeColor=#82b366;" edge="1" parent="1" source="hGpC-fk8pfbG3-t0eklQ-5" target="it17UY4j0vXRSrkzn4eO-5">
          <mxGeometry relative="1" as="geometry" />
        </mxCell>
        <mxCell id="hGpC-fk8pfbG3-t0eklQ-5" value="Host: works.istiodemo.io&amp;nbsp;&lt;b&gt;localhost:80&lt;/b&gt;" style="text;html=1;strokeColor=none;fillColor=none;align=center;verticalAlign=middle;whiteSpace=wrap;rounded=0;" parent="1" vertex="1">
          <mxGeometry x="0.5" y="773" width="240" height="30" as="geometry" />
        </mxCell>
        <mxCell id="it17UY4j0vXRSrkzn4eO-11" style="edgeStyle=orthogonalEdgeStyle;rounded=0;orthogonalLoop=1;jettySize=auto;html=1;entryX=0;entryY=0.5;entryDx=0;entryDy=0;strokeColor=#FF0000;" edge="1" parent="1" source="it17UY4j0vXRSrkzn4eO-4" target="it17UY4j0vXRSrkzn4eO-6">
          <mxGeometry relative="1" as="geometry" />
        </mxCell>
        <mxCell id="it17UY4j0vXRSrkzn4eO-4" value="&quot;gw/gateway-red&quot;" style="rounded=1;whiteSpace=wrap;html=1;" vertex="1" parent="1">
          <mxGeometry x="294" y="510" width="120" height="40" as="geometry" />
        </mxCell>
        <mxCell id="it17UY4j0vXRSrkzn4eO-17" style="edgeStyle=orthogonalEdgeStyle;rounded=0;orthogonalLoop=1;jettySize=auto;html=1;entryX=0;entryY=0.5;entryDx=0;entryDy=0;fillColor=#d5e8d4;strokeColor=#82b366;" edge="1" parent="1" source="it17UY4j0vXRSrkzn4eO-5" target="it17UY4j0vXRSrkzn4eO-7">
          <mxGeometry relative="1" as="geometry" />
        </mxCell>
        <mxCell id="it17UY4j0vXRSrkzn4eO-5" value="&quot;gw/gateway-green&quot;" style="rounded=1;whiteSpace=wrap;html=1;" vertex="1" parent="1">
          <mxGeometry x="300" y="765" width="120" height="45" as="geometry" />
        </mxCell>
        <mxCell id="it17UY4j0vXRSrkzn4eO-12" style="edgeStyle=orthogonalEdgeStyle;rounded=0;orthogonalLoop=1;jettySize=auto;html=1;strokeColor=#FF0000;" edge="1" parent="1" source="it17UY4j0vXRSrkzn4eO-6" target="it17UY4j0vXRSrkzn4eO-10">
          <mxGeometry relative="1" as="geometry" />
        </mxCell>
        <mxCell id="it17UY4j0vXRSrkzn4eO-6" value="&quot;vs/red-vs&quot;" style="rounded=1;whiteSpace=wrap;html=1;" vertex="1" parent="1">
          <mxGeometry x="450" y="510" width="120" height="40" as="geometry" />
        </mxCell>
        <mxCell id="it17UY4j0vXRSrkzn4eO-18" style="edgeStyle=orthogonalEdgeStyle;rounded=0;orthogonalLoop=1;jettySize=auto;html=1;fillColor=#d5e8d4;strokeColor=#82b366;" edge="1" parent="1" source="it17UY4j0vXRSrkzn4eO-7" target="it17UY4j0vXRSrkzn4eO-16">
          <mxGeometry relative="1" as="geometry" />
        </mxCell>
        <mxCell id="it17UY4j0vXRSrkzn4eO-7" value="&quot;vs/green-vs&quot;" style="rounded=1;whiteSpace=wrap;html=1;" vertex="1" parent="1">
          <mxGeometry x="460" y="767.5" width="120" height="40" as="geometry" />
        </mxCell>
        <mxCell id="it17UY4j0vXRSrkzn4eO-15" style="edgeStyle=orthogonalEdgeStyle;rounded=0;orthogonalLoop=1;jettySize=auto;html=1;entryX=0;entryY=0.25;entryDx=0;entryDy=0;strokeColor=#FF0000;" edge="1" parent="1" source="it17UY4j0vXRSrkzn4eO-10" target="it17UY4j0vXRSrkzn4eO-13">
          <mxGeometry relative="1" as="geometry">
            <Array as="points">
              <mxPoint x="750" y="530" />
              <mxPoint x="750" y="600" />
              <mxPoint x="290" y="600" />
              <mxPoint x="290" y="655" />
            </Array>
          </mxGeometry>
        </mxCell>
        <mxCell id="it17UY4j0vXRSrkzn4eO-10" value="&quot;svc/bff-svc&quot;" style="rounded=1;whiteSpace=wrap;html=1;" vertex="1" parent="1">
          <mxGeometry x="610" y="510" width="120" height="40" as="geometry" />
        </mxCell>
        <mxCell id="it17UY4j0vXRSrkzn4eO-14" style="edgeStyle=orthogonalEdgeStyle;rounded=0;orthogonalLoop=1;jettySize=auto;html=1;entryX=0;entryY=0.5;entryDx=0;entryDy=0;fillColor=#d5e8d4;strokeColor=#82b366;" edge="1" parent="1" source="it17UY4j0vXRSrkzn4eO-13" target="I_P2_qD0Jl0lsfXRpeoM-14">
          <mxGeometry relative="1" as="geometry" />
        </mxCell>
        <mxCell id="it17UY4j0vXRSrkzn4eO-13" value="authorizationpolicy/&lt;br&gt;only-green-please" style="shape=process;whiteSpace=wrap;html=1;backgroundOutline=1;" vertex="1" parent="1">
          <mxGeometry x="310" y="645.25" width="150" height="40" as="geometry" />
        </mxCell>
        <mxCell id="it17UY4j0vXRSrkzn4eO-19" style="edgeStyle=orthogonalEdgeStyle;rounded=0;orthogonalLoop=1;jettySize=auto;html=1;entryX=0;entryY=0.75;entryDx=0;entryDy=0;fillColor=#d5e8d4;strokeColor=#82b366;" edge="1" parent="1" source="it17UY4j0vXRSrkzn4eO-16" target="it17UY4j0vXRSrkzn4eO-13">
          <mxGeometry relative="1" as="geometry">
            <Array as="points">
              <mxPoint x="750" y="788" />
              <mxPoint x="750" y="720" />
              <mxPoint x="290" y="720" />
              <mxPoint x="290" y="675" />
            </Array>
          </mxGeometry>
        </mxCell>
        <mxCell id="it17UY4j0vXRSrkzn4eO-16" value="&quot;svc/bff-svc&quot;" style="rounded=1;whiteSpace=wrap;html=1;" vertex="1" parent="1">
          <mxGeometry x="610" y="767.5" width="120" height="40" as="geometry" />
        </mxCell>
        <mxCell id="it17UY4j0vXRSrkzn4eO-23" value="ns:istio-system" style="text;html=1;strokeColor=none;fillColor=none;align=center;verticalAlign=middle;whiteSpace=wrap;rounded=0;" vertex="1" parent="1">
          <mxGeometry x="730" y="435" width="90" height="30" as="geometry" />
        </mxCell>
        <mxCell id="it17UY4j0vXRSrkzn4eO-24" value="ns:red" style="text;html=1;strokeColor=none;fillColor=none;align=center;verticalAlign=middle;whiteSpace=wrap;rounded=0;" vertex="1" parent="1">
          <mxGeometry x="770" y="555" width="50" height="30" as="geometry" />
        </mxCell>
        <mxCell id="it17UY4j0vXRSrkzn4eO-25" value="ns:blue" style="text;html=1;strokeColor=none;fillColor=none;align=center;verticalAlign=middle;whiteSpace=wrap;rounded=0;" vertex="1" parent="1">
          <mxGeometry x="770" y="685.25" width="50" height="30" as="geometry" />
        </mxCell>
        <mxCell id="it17UY4j0vXRSrkzn4eO-26" value="ns:green" style="text;html=1;strokeColor=none;fillColor=none;align=center;verticalAlign=middle;whiteSpace=wrap;rounded=0;" vertex="1" parent="1">
          <mxGeometry x="760" y="810" width="60" height="30" as="geometry" />
        </mxCell>
        <mxCell id="it17UY4j0vXRSrkzn4eO-27" value="" style="shape=mxgraph.mockup.markup.redX;fillColor=#ff0000;html=1;shadow=0;whiteSpace=wrap;strokeColor=none;" vertex="1" parent="1">
          <mxGeometry x="270" y="620.25" width="40" height="25" as="geometry" />
        </mxCell>
      </root>
    </mxGraphModel>
  </diagram>
</mxfile>
